<?xml version="1.0" encoding="utf-8"?>
<!-- Generator: Adobe Illustrator 18.1.1, SVG Export Plug-In . SVG Version: 6.00 Build 0)  -->
<svg version="1.1" id="VK" xmlns="http://www.w3.org/2000/svg" xmlns:xlink="http://www.w3.org/1999/xlink" x="0px" y="0px"
	 viewBox="48 -47 100 100" enable-background="new 48 -47 100 100" xml:space="preserve">
<g>
	<path fill="#FFFFFF" d="M124.4,24.8h-5.3l0-3.1c0-1.4,1.1-2.5,2.5-2.5h0.3c1.4,0,2.5,1.1,2.5,2.5L124.4,24.8z M104.5,18.2
		c-1.3,0-2.4,0.9-2.4,2v15c0,1.1,1.1,2,2.4,2c1.4,0,2.5-0.9,2.5-2v-15C106.9,19.1,105.8,18.2,104.5,18.2L104.5,18.2z M136.8,9.8
		v28.5c0,6.8-5.9,12.4-13.2,12.4H69.5c-7.2,0-13.2-5.6-13.2-12.4V9.8c0-6.8,5.9-12.4,13.2-12.4h54.2C130.8-2.6,136.8,3,136.8,9.8
		L136.8,9.8z M73.1,41.4v-30h6.7V6.9l-17.9,0v4.4l5.6,0v30.1H73.1z M93.2,15.9h-5.6v16c0,2.3,0.1,3.5,0,3.9
		c-0.5,1.2-2.5,2.6-3.3,0.1c-0.1-0.4,0-1.7,0-3.9l0-16.1h-5.6l0,15.9c0,2.4-0.1,4.2,0,5.1c0.1,1.5,0.1,3.2,1.4,4.1
		c2.5,1.8,7.3-0.3,8.5-2.9l0,3.3l4.5,0L93.2,15.9L93.2,15.9z M111.1,34.2l0-13.3c0-5.1-3.8-8.1-9-4l0-9.9l-5.6,0l0,34.2l4.6-0.1
		l0.4-2.1C107.4,44.4,111.1,40.7,111.1,34.2L111.1,34.2z M128.6,32.4l-4.2,0c0,0.2,0,0.4,0,0.6v2.3c0,1.3-1,2.3-2.3,2.3h-0.8
		c-1.3,0-2.3-1-2.3-2.3v-6.2h9.6v-3.6c0-2.6-0.1-5.3-0.3-6.8c-0.7-4.8-7.4-5.5-10.8-3.1c-1.1,0.8-1.9,1.8-2.3,3.2
		c-0.5,1.4-0.7,3.2-0.7,5.6v7.9C114.5,45.7,130.5,43.8,128.6,32.4L128.6,32.4z M107.1-10.7c0.3,0.7,0.7,1.3,1.3,1.7
		c0.6,0.4,1.4,0.6,2.3,0.6c0.8,0,1.5-0.2,2.1-0.7c0.6-0.5,1.1-1.1,1.6-2l-0.1,2.2h6.2v-26.5h-4.9v20.6c0,1.1-0.9,2-2,2
		c-1.1,0-2-0.9-2-2v-20.6h-5.1v17.9c0,2.3,0,3.8,0.1,4.6C106.6-12.2,106.8-11.5,107.1-10.7L107.1-10.7z M88.2-25.7
		c0-2.5,0.2-4.5,0.6-6c0.4-1.4,1.2-2.6,2.3-3.4c1.1-0.9,2.5-1.3,4.2-1.3c1.4,0,2.7,0.3,3.7,0.8c1,0.6,1.8,1.3,2.4,2.2
		c0.6,0.9,0.9,1.8,1.2,2.8c0.2,1,0.3,2.4,0.3,4.3v6.7c0,2.5-0.1,4.3-0.3,5.4c-0.2,1.2-0.6,2.2-1.2,3.2c-0.6,1-1.4,1.7-2.4,2.2
		c-1,0.5-2.1,0.7-3.4,0.7c-1.4,0-2.6-0.2-3.6-0.6c-1-0.4-1.8-1-2.3-1.8c-0.5-0.8-0.9-1.8-1.2-3c-0.2-1.2-0.3-2.9-0.3-5.2V-25.7z
		 M93.1-15.2c0,1.5,1.1,2.7,2.5,2.7c1.4,0,2.5-1.2,2.5-2.7v-14.1c0-1.5-1.1-2.7-2.5-2.7c-1.4,0-2.5,1.2-2.5,2.7V-15.2z M75.8-8.1
		h5.9l0-20.3l7-17.4h-6.4l-3.7,12.9l-3.7-13h-6.4l7.4,17.5L75.8-8.1z M75.8-8.1"/>
</g>
</svg>
